<?xml version="1.0" encoding="UTF-8" standalone="no"?>
<!-- Created with Inkscape (http://www.inkscape.org/) -->

<svg
   xmlns:dc="http://purl.org/dc/elements/1.1/"
   xmlns:cc="http://creativecommons.org/ns#"
   xmlns:rdf="http://www.w3.org/1999/02/22-rdf-syntax-ns#"
   xmlns:svg="http://www.w3.org/2000/svg"
   xmlns="http://www.w3.org/2000/svg"
   xmlns:sodipodi="http://sodipodi.sourceforge.net/DTD/sodipodi-0.dtd"
   xmlns:inkscape="http://www.inkscape.org/namespaces/inkscape"
   width="44.879368mm"
   height="115.91078mm"
   viewBox="0 0 159.02138 410.7075"
   id="svg2"
   version="1.1"
   inkscape:version="0.91 r13725"
   sodipodi:docname="dancer2.svg">
  <defs
     id="defs4" />
  <sodipodi:namedview
     id="base"
     pagecolor="#ffffff"
     bordercolor="#666666"
     borderopacity="1.0"
     inkscape:pageopacity="0.0"
     inkscape:pageshadow="2"
     inkscape:zoom="0.61994387"
     inkscape:cx="-10.030934"
     inkscape:cy="199.07253"
     inkscape:document-units="px"
     inkscape:current-layer="layer1"
     showgrid="false"
     inkscape:window-width="1241"
     inkscape:window-height="755"
     inkscape:window-x="39"
     inkscape:window-y="1"
     inkscape:window-maximized="1"
     fit-margin-top="0"
     fit-margin-left="0"
     fit-margin-right="0"
     fit-margin-bottom="0" />
  <metadata
     id="metadata7">
    <rdf:RDF>
      <cc:Work
         rdf:about="">
        <dc:format>image/svg+xml</dc:format>
        <dc:type
           rdf:resource="http://purl.org/dc/dcmitype/StillImage" />
        <dc:title></dc:title>
      </cc:Work>
    </rdf:RDF>
  </metadata>
  <g
     inkscape:label="Layer 1"
     inkscape:groupmode="layer"
     id="layer1"
     transform="translate(-180.82162,-212.48005)">
    <ellipse
       style="opacity:1;fill:none;fill-opacity:1;stroke:#000000;stroke-width:1.00001371;stroke-linecap:round;stroke-miterlimit:4;stroke-dasharray:none;stroke-dashoffset:0;stroke-opacity:1"
       id="path4147"
       cx="-343.59305"
       cy="151.99405"
       rx="21.183186"
       ry="24.28952"
       transform="matrix(-0.96495647,-0.26241002,-0.25527023,0.96686975,0,0)" />
    <path
       style="fill:none;fill-rule:evenodd;stroke:#000000;stroke-width:1;stroke-linecap:butt;stroke-linejoin:miter;stroke-miterlimit:4;stroke-dasharray:none;stroke-opacity:1"
       d="m 302.41674,258.0142 c -3.61259,7.3798 -5.13881,16.39085 -1.54082,21.33132 12.78734,4.12207 16.53613,8.24414 22.56435,12.36621 6.93384,4.56775 -6.45416,36.03164 -3.61028,53.58695 2.83759,17.51656 18.27058,33.33287 19.40533,47.17484 1.13476,13.84196 -7.13808,35.0869 -7.22059,31.37355 -0.0825,-3.71335 1.83997,-15.98928 0,-21.29737 -0.7323,4.61029 -4.62942,10.02487 -6.32037,9.61817 -1.59213,-0.38295 2.19166,-9.93991 4.96651,-19.69435 -11.4269,-25.16726 -17.04519,-26.75407 -25.27208,-38.93069 0.2992,-11.99043 1.46828,-27.09358 -0.45128,-31.14455 -6.02591,6.63269 -7.88755,13.26537 -7.97959,19.89806 2.27874,4.67526 5.64773,8.1634 8.77551,9.39195"
       id="path4149"
       inkscape:connector-curvature="0"
       sodipodi:nodetypes="cccszzcsccccc" />
    <path
       style="fill:none;fill-rule:evenodd;stroke:#000000;stroke-width:1;stroke-linecap:butt;stroke-linejoin:miter;stroke-miterlimit:4;stroke-dasharray:none;stroke-opacity:1"
       d="m 281.92187,258.83268 c -0.41942,5.46359 -1.94378,10.92717 -4.06159,16.39076 0,0.2716 -23.72015,-4.23261 -35.65168,-3.66406 -9.39923,0.4479 -28.28279,50.32197 -25.27208,61.83109 6.16423,23.56425 9.145,93.42731 10.8309,93.89166 2.68478,0.73948 5.86672,-21.98439 5.86672,-21.98439 0,0 5.14267,10.45014 6.76931,10.07618 1.62664,-0.37396 -4.06158,-18.77833 -4.06158,-18.77833 -5.54985,-34.4252 -5.80925,-41.99764 -8.12317,-64.57914 2.73157,-14.77635 8.03318,-17.81532 13.08733,-21.98439 0.86128,12.26401 4.93035,22.5747 10.01941,32.26428 -7.95213,13.31175 -15.33668,26.76753 -16.59361,41.77802"
       id="path4153"
       inkscape:connector-curvature="0"
       sodipodi:nodetypes="ccsssczccccc" />
    <path
       style="fill:none;fill-rule:evenodd;stroke:#000000;stroke-width:1;stroke-linecap:butt;stroke-linejoin:miter;stroke-miterlimit:4;stroke-dasharray:none;stroke-opacity:1"
       d="m 226.75412,422.61377 c -5.17448,21.89131 2.34846,32.01856 -5.23184,53.09599 -24.0666,33.24647 -29.44406,51.73425 -32.54904,84.12977 1.15761,1.76228 -5.49565,37.74493 -7.33949,44.69277 -1.8878,7.1135 5.21478,17.4848 12.44523,18.13619 4.04567,0.36447 8.03119,-4.6651 8.61591,-8.74423 1.38723,-9.67751 -7.55374,-50.36392 -4.78661,-54.73245 9.67487,-30.92109 23.50854,-44.23032 37.33565,-73.76623 20.99649,-34.48057 44.22268,-90.72826 44.80124,-92.77129 0.57856,-2.04303 4.80848,-5.90692 7.49906,-1.455 2.69058,4.45192 17.40966,43.24392 25.04999,89.36838 0.84221,31.16307 3.61656,56.1698 5.42484,91.2547 1.05133,3.87013 -7.6398,33.86738 -8.29682,36.92012 -1.22364,5.68544 5.49772,12.41781 11.16879,13.27829 3.216,0.48797 13.77726,-8.95431 12.76433,-15.86918 -1.02117,-6.97097 -6.06306,-22.9941 -6.06306,-22.9941 0.99312,-39.65096 13.91353,-65.97441 1.27643,-104.85686 1.81313,-22.67024 5.08023,-33.18092 4.62705,-55.85116"
       id="path4174"
       inkscape:connector-curvature="0"
       sodipodi:nodetypes="cccssscczzccsssccc" />
  </g>
</svg>
